<svg width="19" height="19" viewBox="0 0 19 19" fill="none" xmlns="http://www.w3.org/2000/svg">
<path fill-rule="evenodd" clip-rule="evenodd" d="M17.4 9.50005C17.4 13.8631 13.863 17.4 9.49999 17.4C5.13694 17.4 1.59999 13.8631 1.59999 9.50005C1.59999 5.137 5.13694 1.60005 9.49999 1.60005C13.863 1.60005 17.4 5.137 17.4 9.50005ZM9.49999 18.7001C14.581 18.7001 18.7 14.5811 18.7 9.50005C18.7 4.41903 14.581 0.300049 9.49999 0.300049C4.41897 0.300049 0.299988 4.41903 0.299988 9.50005C0.299988 14.5811 4.41897 18.7001 9.49999 18.7001ZM7.11442 13.284C6.83951 13.5513 6.82752 13.9945 7.08664 14.2769C7.34878 14.5626 7.78921 14.5759 8.06737 14.3055L12.4856 10.0108C12.6231 9.87705 12.7 9.69216 12.7 9.50005C12.7 9.30793 12.6231 9.12305 12.4856 8.98931L8.06737 4.69457C7.78921 4.42418 7.34878 4.43749 7.08664 4.72317C6.82752 5.00555 6.83951 5.44882 7.11442 5.71606L11.0072 9.50005L7.11442 13.284ZM7.11679 13.6634C7.07412 13.8273 7.11256 14.0094 7.234 14.1417C7.42016 14.3446 7.73086 14.3537 7.92797 14.1621L12.3461 9.86738C12.3951 9.81977 12.4335 9.76283 12.4597 9.70047C12.4335 9.76282 12.3951 9.81973 12.3462 9.86733L7.92798 14.1621C7.73087 14.3537 7.42017 14.3445 7.23401 14.1417C7.11258 14.0093 7.07414 13.8272 7.11679 13.6634ZM7.11566 5.07828C7.0723 5.25077 7.11908 5.44166 7.25383 5.57265L11.2941 9.50003L11.2941 9.5L7.25384 5.5726C7.1191 5.44163 7.07232 5.25076 7.11566 5.07828ZM17.6 9.50005C17.6 5.02654 13.9735 1.40005 9.49999 1.40005C5.91936 1.40005 2.88137 3.72337 1.8113 6.94474C2.88136 3.72334 5.91935 1.4 9.5 1.4C13.9735 1.4 17.6 5.02649 17.6 9.5C17.6 9.50002 17.6 9.50003 17.6 9.50005ZM17.2751 14.0359C15.7139 16.7062 12.8164 18.5 9.49999 18.5C4.52942 18.5 0.499988 14.4706 0.499988 9.50005C0.499988 8.87873 0.562948 8.27211 0.682836 7.68623C0.562954 8.2721 0.5 8.8787 0.5 9.5C0.5 14.4706 4.52944 18.5 9.5 18.5C12.8164 18.5 15.7139 16.7062 17.2751 14.0359Z" fill="#3A3A44"/>
</svg>
