<svg width="18" height="22" viewBox="0 0 18 22" fill="none" xmlns="http://www.w3.org/2000/svg">
<path d="M8.9997 0.19043C4.25551 0.19043 0.385742 4.0602 0.385742 8.82299C0.385742 9.39973 0.441556 9.97647 0.553184 10.5346C0.553184 10.5718 0.571789 10.609 0.571789 10.6648C1.52063 14.9253 8.1997 21.3253 8.47877 21.5858C8.6276 21.7346 8.81365 21.7904 8.9997 21.7904C9.18574 21.7904 9.37179 21.716 9.52063 21.5858C9.7997 21.3067 16.4416 14.9253 17.3904 10.7579C17.3904 10.7207 17.409 10.6835 17.409 10.6462C17.5392 10.0509 17.595 9.43694 17.595 8.82299C17.6136 4.0602 13.7439 0.19043 8.9997 0.19043ZM15.9206 10.3672C15.9206 10.4044 15.9206 10.3858 15.9206 10.423C15.2136 13.5114 10.5811 18.3858 8.9997 19.9672C7.4183 18.3858 2.76714 13.5114 2.06016 10.3486C2.06016 10.3114 2.06016 10.2928 2.04156 10.2555C1.94853 9.77182 1.89272 9.2881 1.89272 8.80438C1.89272 4.89741 5.07411 1.69741 8.98109 1.69741C12.8881 1.69741 16.0881 4.8788 16.0881 8.80438C16.0881 9.34392 16.0323 9.86485 15.9206 10.3672Z" fill="white"/>
<path d="M8.99993 5.0459C7.39993 5.0459 6.11621 6.34822 6.11621 7.92962C6.11621 9.51101 7.41854 10.8133 8.99993 10.8133C10.5813 10.8133 11.8837 9.52962 11.8837 7.92962C11.8837 6.32962 10.5999 5.0459 8.99993 5.0459ZM8.99993 9.30636C8.23714 9.30636 7.62319 8.69241 7.62319 7.92962C7.62319 7.16683 8.23714 6.55287 8.99993 6.55287C9.76272 6.55287 10.3767 7.16683 10.3767 7.92962C10.3767 8.69241 9.76272 9.30636 8.99993 9.30636Z" fill="white"/>
</svg>
