<svg width="34" height="22" viewBox="0 0 34 22" fill="none" xmlns="http://www.w3.org/2000/svg">
<path d="M33.558 0.345999C33.558 0.154999 33.398 0 33.205 0H28.658C28.463 0 28.305 0.154999 28.305 0.345999V21.097C28.305 21.285 28.463 21.441 28.658 21.441H33.205C33.398 21.441 33.558 21.285 33.558 21.097V0.345999Z" fill="white"/>
<path d="M22.259 1.927C20.491 0.157 16.905 0 13.475 0H0.350998C0.156998 0 0 0.154999 0 0.345999V21.097C0 21.285 0.156998 21.441 0.350998 21.441H4.9C5.094 21.441 5.254 21.285 5.254 21.097V4.81C5.254 4.622 5.412 4.466 5.606 4.466H13.846C15.466 4.506 17.024 4.698 17.859 5.535C18.829 6.508 18.937 8.441 18.942 10.322V21.097C18.942 21.285 19.101 21.441 19.296 21.441H23.841C24.036 21.441 24.194 21.285 24.194 21.097L24.1938 10.5042C24.1867 7.13666 23.999 3.66894 22.259 1.927Z" fill="white"/>
<path d="M14.843 8.608C14.843 8.419 14.686 8.264 14.493 8.264H9.717C9.521 8.264 9.363 8.419 9.363 8.608V21.097C9.363 21.285 9.521 21.441 9.717 21.441H14.493C14.686 21.441 14.843 21.285 14.843 21.097V8.608Z" fill="white"/>
</svg>
