<svg width="34" height="34" viewBox="0 0 34 34" fill="none" xmlns="http://www.w3.org/2000/svg">
<circle cx="17" cy="17" r="17" fill="#E40046"/>
<path d="M28.6994 15.1424C28.2793 14.7899 27.8443 14.4254 27.762 14.1162C27.6727 13.7834 27.8714 13.233 28.0638 12.7012C28.3418 11.9321 28.6293 11.1363 28.2598 10.4984C27.8849 9.85178 27.0443 9.70192 26.2339 9.55838C25.6836 9.46093 25.1132 9.36054 24.8783 9.1246C24.6434 8.88887 24.5415 8.31912 24.4447 7.76852C24.3008 6.95609 24.1519 6.11546 23.5041 5.74272C22.8666 5.37334 22.0704 5.66126 21.3015 5.93888C20.7694 6.13146 20.2195 6.32973 19.8863 6.24048C19.5773 6.15777 19.2126 5.72335 18.86 5.30262C18.3212 4.66152 17.766 4 17.0005 4C16.2348 4 15.6798 4.66152 15.1427 5.30135C14.7901 5.72146 14.4254 6.15651 14.1164 6.2388C13.7834 6.32762 13.233 6.12893 12.7012 5.93698C11.9317 5.65895 11.1357 5.37186 10.4986 5.74103C9.85199 6.11588 9.70192 6.95651 9.55838 7.76894C9.46093 8.31954 9.36054 8.88971 9.12481 9.1246C8.88887 9.35948 8.31912 9.46135 7.76873 9.55838C6.95609 9.70234 6.11567 9.85094 5.74272 10.4988C5.37334 11.1367 5.66084 11.9325 5.93888 12.7016C6.13146 13.2334 6.33015 13.7838 6.2407 14.1166C6.15777 14.4258 5.72335 14.7903 5.30262 15.1429C4.66173 15.6796 4 16.2348 4 17.0003C4 17.766 4.66173 18.321 5.30135 18.8581C5.72167 19.2107 6.15651 19.5754 6.2388 19.8844C6.32804 20.2174 6.12936 20.7677 5.93719 21.2996C5.65916 22.0687 5.37165 22.8643 5.74103 23.5022C6.1161 24.1488 6.95651 24.2989 7.76915 24.4424C8.31954 24.5398 8.88992 24.6402 9.12481 24.876C9.3597 25.1119 9.46135 25.6817 9.55838 26.232C9.70235 27.0447 9.85115 27.8851 10.499 28.2581C11.1365 28.6274 11.9325 28.3395 12.7016 28.0619C13.2339 27.8697 13.7853 27.6715 14.1168 27.7601C14.4258 27.843 14.7905 28.2774 15.1431 28.6982C15.6802 29.3378 16.2352 29.9995 17.0009 29.9995C17.7664 29.9995 18.3216 29.3378 18.8588 28.6982C19.2113 28.2778 19.5758 27.843 19.885 27.7607C20.2169 27.6711 20.7678 27.8702 21.3 28.0623C22.0691 28.3399 22.8649 28.627 23.5029 28.2585C24.1494 27.8834 24.2993 27.043 24.4428 26.2325C24.5403 25.6821 24.6407 25.1119 24.8766 24.8768C25.1123 24.6419 25.6821 24.5403 26.2327 24.4432C27.0451 24.2993 27.8857 24.1507 28.2585 23.5026C28.6279 22.8647 28.3404 22.0691 28.0625 21.3C27.8697 20.7682 27.6711 20.2178 27.7607 19.885C27.8434 19.5758 28.2781 19.2113 28.6986 18.8585C29.3384 18.3214 29.9999 17.7664 29.9999 17.0007C29.9999 16.2352 29.3393 15.6796 28.6994 15.1424V15.1424ZM28.1453 18.1979C27.6222 18.6361 27.0817 19.0901 26.9287 19.6634C26.7702 20.2578 27.015 20.9372 27.2533 21.5941C27.4543 22.151 27.6822 22.7816 27.5119 23.0724C27.3396 23.3742 26.6696 23.4911 26.0797 23.5955C25.3977 23.7161 24.6924 23.8407 24.2646 24.2688C23.8365 24.6966 23.7119 25.4015 23.5917 26.0835C23.4873 26.6734 23.3692 27.3421 23.0686 27.5157C22.7782 27.6839 22.1472 27.4559 21.5907 27.2571C20.9338 27.0192 20.2544 26.7732 19.6596 26.9329C19.088 27.0855 18.6342 27.6262 18.1941 28.149C17.803 28.615 17.36 29.1404 16.9965 29.1404C16.6332 29.1404 16.19 28.6127 15.7991 28.149C15.3607 27.6262 14.9069 27.0855 14.3336 26.9325C14.2008 26.8982 14.0642 26.8811 13.927 26.8822C13.4016 26.9216 12.8866 27.0483 12.4029 27.2571C11.846 27.4581 11.2148 27.686 10.9244 27.5157C10.6225 27.3433 10.5057 26.6734 10.4015 26.0835C10.2807 25.4015 10.1563 24.6962 9.72823 24.2683C9.30013 23.8402 8.59547 23.7156 7.91354 23.5955C7.32337 23.4911 6.65491 23.373 6.48106 23.0724C6.3131 22.7816 6.54104 22.151 6.74183 21.5945C6.97988 20.9372 7.22508 20.2582 7.06596 19.6634C6.91337 19.0918 6.37287 18.638 5.85006 18.1979C5.38407 17.8068 4.85873 17.3638 4.85873 17.0003C4.85873 16.637 5.38618 16.194 5.85006 15.8029C6.37287 15.3645 6.91337 14.9107 7.06638 14.3374C7.22508 13.743 6.9803 13.0636 6.74183 12.4067C6.54104 11.8498 6.31078 11.2192 6.48106 10.9281C6.65343 10.6265 7.32337 10.5097 7.91354 10.4053C8.59547 10.2845 9.30055 10.1601 9.72865 9.73202C10.1568 9.30392 10.2811 8.59925 10.4015 7.91732C10.5057 7.32716 10.624 6.65869 10.9244 6.48484C11.214 6.31689 11.846 6.54483 12.4025 6.74562C13.0598 6.98324 13.7386 7.22929 14.3336 7.06975C14.905 6.91716 15.359 6.37666 15.7991 5.85385C16.19 5.38786 16.6332 4.86252 16.9965 4.86252C17.36 4.86252 17.803 5.38996 18.1941 5.85385C18.6323 6.37666 19.0863 6.91716 19.6596 7.07038C20.2544 7.22887 20.9334 6.98409 21.5903 6.74562C22.1468 6.54483 22.7774 6.31457 23.0686 6.48484C23.3705 6.65743 23.4873 7.32716 23.5917 7.91732C23.7123 8.59925 23.8369 9.30434 24.265 9.73244C24.6929 10.1605 25.3977 10.2851 26.0797 10.4053C26.6696 10.5097 27.3383 10.6278 27.5119 10.9281C27.6801 11.2192 27.4522 11.8498 27.2533 12.4063C27.0154 13.0636 26.7702 13.7426 26.9291 14.3374C27.0817 14.9088 27.6222 15.3628 28.1453 15.8029C28.6112 16.194 29.1366 16.637 29.1366 17.0003C29.1366 17.3638 28.6112 17.8068 28.1453 18.1979V18.1979Z" fill="white"/>
<path d="M17.0005 7.94824C12.0011 7.94824 7.94849 12.0011 7.94849 17.0003C7.94849 21.9996 12.0011 26.0523 17.0005 26.0523C21.9997 26.0523 26.0525 21.9996 26.0525 17.0003C26.0471 12.0032 21.9976 7.95371 17.0005 7.94824V7.94824ZM17.0005 25.1902C12.4772 25.1902 8.81058 21.5235 8.81058 17.0003C8.81058 12.4772 12.4772 8.81034 17.0005 8.81034C21.5236 8.81034 25.1904 12.4772 25.1904 17.0003C25.1854 21.5214 21.5215 25.1854 17.0005 25.1902Z" fill="white"/>
<path d="M12.8162 20.575L20.575 12.8162L21.1848 13.4257L13.4257 21.1848L12.8162 20.575Z" fill="white"/>
<path d="M19.5867 17.8625C18.6344 17.8625 17.8625 18.6346 17.8625 19.5867C17.8625 20.5391 18.6344 21.3109 19.5867 21.3109C20.5389 21.3109 21.3109 20.5391 21.3109 19.5867C21.3109 18.6346 20.5389 17.8625 19.5867 17.8625ZM19.5867 20.4488C19.1107 20.4488 18.7246 20.0628 18.7246 19.5867C18.7246 19.1107 19.1107 18.7246 19.5867 18.7246C20.0628 18.7246 20.4488 19.1107 20.4488 19.5867C20.4488 20.0628 20.0628 20.4488 19.5867 20.4488Z" fill="white"/>
<path d="M14.4141 16.1383C15.3663 16.1383 16.1383 15.3665 16.1383 14.4141C16.1383 13.462 15.3663 12.6899 14.4141 12.6899C13.4617 12.6899 12.6899 13.462 12.6899 14.4141C12.6899 15.3665 13.4617 16.1383 14.4141 16.1383ZM14.4141 13.552C14.8902 13.552 15.2762 13.938 15.2762 14.4141C15.2762 14.8902 14.8902 15.2762 14.4141 15.2762C13.938 15.2762 13.552 14.8902 13.552 14.4141C13.552 13.938 13.938 13.552 14.4141 13.552Z" fill="white"/>
</svg>
