<svg width="14" height="14" viewBox="0 0 14 14" fill="none" xmlns="http://www.w3.org/2000/svg">
<path d="M6.35877 0.416922C6.62107 -0.138973 7.37892 -0.138974 7.6412 0.416921L9.25039 3.82727C9.35458 4.04802 9.55587 4.20102 9.78877 4.23642L13.387 4.7833C13.9735 4.87244 14.2077 5.62633 13.7833 6.05904L11.1796 8.71364C11.0111 8.88544 10.9342 9.133 10.9739 9.37563L11.5886 13.124C11.6888 13.7349 11.0757 14.2009 10.5511 13.9124L7.33272 12.1427C7.12442 12.0282 6.87558 12.0282 6.66728 12.1427L3.44893 13.9124C2.92434 14.2009 2.31122 13.7349 2.4114 13.124L3.02605 9.37563C3.06583 9.133 2.98893 8.88544 2.8204 8.71364L0.216724 6.05904C-0.207681 5.62634 0.02651 4.87244 0.613022 4.7833L4.21122 4.23642C4.44412 4.20102 4.64546 4.04802 4.74962 3.82727L6.35877 0.416922Z" fill="#FF6700"/>
</svg>
